<svg xmlns="http://www.w3.org/2000/svg" width="1600" height="900" viewBox="0 0 1600 900" role="img" aria-label="原创都市甜宠氛围背景">
  <defs>
    <linearGradient id="g" x1="0" y1="0" x2="1" y2="1"><stop offset="0" stop-color="#ff7542"/><stop offset=".45" stop-color="#a92a55"/><stop offset="1" stop-color="#090a12"/></linearGradient>
    <radialGradient id="r" cx=".55" cy=".48" r=".42"><stop offset="0" stop-color="#ffd0bd" stop-opacity=".45"/><stop offset=".45" stop-color="#ff4d2e" stop-opacity=".16"/><stop offset="1" stop-color="#000" stop-opacity="0"/></radialGradient>
    <filter id="b"><feGaussianBlur stdDeviation="38"/></filter>
  </defs>
  <rect width="1600" height="900" fill="url(#g)"/>
  <circle cx="880" cy="420" r="360" fill="url(#r)"/>
  <g filter="url(#b)" opacity=".7"><circle cx="380" cy="210" r="180" fill="#ffb36d"/><circle cx="1260" cy="630" r="260" fill="#ff2d55"/></g>
  <path d="M0 670c220-90 380-90 620-34 260 61 520 81 980-50v314H0z" fill="#090a12" opacity=".74"/>
  <g opacity=".18" fill="#fff"><rect x="180" y="210" width="26" height="360" rx="13"/><rect x="258" y="170" width="18" height="420" rx="9"/><rect x="1130" y="130" width="22" height="420" rx="11"/><rect x="1212" y="210" width="14" height="340" rx="7"/></g>
  <path d="M820 250c78 0 142 76 142 170s-64 170-142 170-142-76-142-170 64-170 142-170z" fill="#fff" opacity=".07"/>
  <rect width="1600" height="900" fill="none" stroke="#fff" stroke-opacity=".08" stroke-width="2"/>
</svg>
